<svg version="1.0" xmlns="http://www.w3.org/2000/svg" viewBox="0 0 128 128">
    <style>
        path {
            fill: #000;
        }
        @media (prefers-color-scheme: dark) {
            path {
                fill: #fff;
            }
        }
    </style>
    <g transform="translate(0.000000,128.000000) scale(0.100000,-0.100000)"
    fill="#000000" stroke="none">
        <path d="M357 642 c-152 -345 -277 -631 -277 -635 0 -4 36 -7 81 -5 l81 3 76
        180 77 180 245 0 245 0 77 -180 76 -180 81 -3 c45 -2 81 1 81 5 0 12 -555
        1263 -560 1263 -3 0 -130 -283 -283 -628z m372 91 c46 -109 86 -204 88 -213 4
        -13 -20 -15 -177 -15 -157 0 -181 2 -177 15 8 33 171 410 177 410 3 0 43 -89
        89 -197z"/>
    </g>
</svg>

